<mxfile host="app.diagrams.net" modified="2024-02-25T17:28:43.483Z" agent="Mozilla/5.0 (X11; Linux x86_64; rv:109.0) Gecko/20100101 Firefox/112.0" etag="as8J0hCB-HlWBaG6LjeB" version="23.1.6" type="device">
  <diagram name="Page-1" id="x4xdTf4lcPmk02mpgIDD">
    <mxGraphModel dx="630" dy="399" grid="1" gridSize="10" guides="1" tooltips="1" connect="1" arrows="1" fold="1" page="1" pageScale="1" pageWidth="850" pageHeight="1100" math="0" shadow="0">
      <root>
        <mxCell id="0" />
        <mxCell id="1" parent="0" />
        <mxCell id="cgjht4FZZwzc8xEACjgz-1" value="&lt;br&gt;&lt;b&gt;Fraction&lt;/b&gt;&lt;div&gt;&lt;br/&gt;&lt;/div&gt;" style="swimlane;fontStyle=0;align=center;verticalAlign=top;childLayout=stackLayout;horizontal=1;startSize=55;horizontalStack=0;resizeParent=1;resizeParentMax=0;resizeLast=0;collapsible=0;marginBottom=0;html=1;whiteSpace=wrap;" vertex="1" parent="1">
          <mxGeometry x="320" y="170" width="230" height="263" as="geometry" />
        </mxCell>
        <mxCell id="cgjht4FZZwzc8xEACjgz-3" value="- numerator: int" style="text;html=1;strokeColor=none;fillColor=none;align=left;verticalAlign=middle;spacingLeft=4;spacingRight=4;overflow=hidden;rotatable=0;points=[[0,0.5],[1,0.5]];portConstraint=eastwest;whiteSpace=wrap;" vertex="1" parent="cgjht4FZZwzc8xEACjgz-1">
          <mxGeometry y="55" width="230" height="20" as="geometry" />
        </mxCell>
        <mxCell id="cgjht4FZZwzc8xEACjgz-5" value="..." style="text;html=1;strokeColor=none;fillColor=none;align=left;verticalAlign=middle;spacingLeft=4;spacingRight=4;overflow=hidden;rotatable=0;points=[[0,0.5],[1,0.5]];portConstraint=eastwest;whiteSpace=wrap;" vertex="1" parent="cgjht4FZZwzc8xEACjgz-1">
          <mxGeometry y="75" width="230" height="20" as="geometry" />
        </mxCell>
        <mxCell id="cgjht4FZZwzc8xEACjgz-6" value="" style="line;strokeWidth=1;fillColor=none;align=left;verticalAlign=middle;spacingTop=-1;spacingLeft=3;spacingRight=3;rotatable=0;labelPosition=right;points=[];portConstraint=eastwest;" vertex="1" parent="cgjht4FZZwzc8xEACjgz-1">
          <mxGeometry y="95" width="230" height="8" as="geometry" />
        </mxCell>
        <mxCell id="cgjht4FZZwzc8xEACjgz-8" value="+ Fraction( n:int, d:int )" style="text;html=1;strokeColor=none;fillColor=none;align=left;verticalAlign=middle;spacingLeft=4;spacingRight=4;overflow=hidden;rotatable=0;points=[[0,0.5],[1,0.5]];portConstraint=eastwest;whiteSpace=wrap;" vertex="1" parent="cgjht4FZZwzc8xEACjgz-1">
          <mxGeometry y="103" width="230" height="20" as="geometry" />
        </mxCell>
        <mxCell id="cgjht4FZZwzc8xEACjgz-11" value=". . ." style="text;html=1;strokeColor=none;fillColor=none;align=left;verticalAlign=middle;spacingLeft=4;spacingRight=4;overflow=hidden;rotatable=0;points=[[0,0.5],[1,0.5]];portConstraint=eastwest;whiteSpace=wrap;" vertex="1" parent="cgjht4FZZwzc8xEACjgz-1">
          <mxGeometry y="123" width="230" height="20" as="geometry" />
        </mxCell>
        <mxCell id="cgjht4FZZwzc8xEACjgz-10" value="+ setNumerator( n:int ): void" style="text;html=1;strokeColor=none;fillColor=none;align=left;verticalAlign=middle;spacingLeft=4;spacingRight=4;overflow=hidden;rotatable=0;points=[[0,0.5],[1,0.5]];portConstraint=eastwest;whiteSpace=wrap;" vertex="1" parent="cgjht4FZZwzc8xEACjgz-1">
          <mxGeometry y="143" width="230" height="20" as="geometry" />
        </mxCell>
        <mxCell id="cgjht4FZZwzc8xEACjgz-12" value="+ getNumerator(&amp;nbsp; ): int" style="text;html=1;strokeColor=none;fillColor=none;align=left;verticalAlign=middle;spacingLeft=4;spacingRight=4;overflow=hidden;rotatable=0;points=[[0,0.5],[1,0.5]];portConstraint=eastwest;whiteSpace=wrap;" vertex="1" parent="cgjht4FZZwzc8xEACjgz-1">
          <mxGeometry y="163" width="230" height="20" as="geometry" />
        </mxCell>
        <mxCell id="cgjht4FZZwzc8xEACjgz-13" value=". . ." style="text;html=1;strokeColor=none;fillColor=none;align=left;verticalAlign=middle;spacingLeft=4;spacingRight=4;overflow=hidden;rotatable=0;points=[[0,0.5],[1,0.5]];portConstraint=eastwest;whiteSpace=wrap;" vertex="1" parent="cgjht4FZZwzc8xEACjgz-1">
          <mxGeometry y="183" width="230" height="20" as="geometry" />
        </mxCell>
        <mxCell id="cgjht4FZZwzc8xEACjgz-15" value="+ equals( other: Fraction ): boolean" style="text;html=1;strokeColor=none;fillColor=none;align=left;verticalAlign=middle;spacingLeft=4;spacingRight=4;overflow=hidden;rotatable=0;points=[[0,0.5],[1,0.5]];portConstraint=eastwest;whiteSpace=wrap;" vertex="1" parent="cgjht4FZZwzc8xEACjgz-1">
          <mxGeometry y="203" width="230" height="20" as="geometry" />
        </mxCell>
        <mxCell id="cgjht4FZZwzc8xEACjgz-16" value="+ toString( ): String" style="text;html=1;strokeColor=none;fillColor=none;align=left;verticalAlign=middle;spacingLeft=4;spacingRight=4;overflow=hidden;rotatable=0;points=[[0,0.5],[1,0.5]];portConstraint=eastwest;whiteSpace=wrap;" vertex="1" parent="cgjht4FZZwzc8xEACjgz-1">
          <mxGeometry y="223" width="230" height="20" as="geometry" />
        </mxCell>
        <mxCell id="cgjht4FZZwzc8xEACjgz-17" value=". . ." style="text;html=1;strokeColor=none;fillColor=none;align=left;verticalAlign=middle;spacingLeft=4;spacingRight=4;overflow=hidden;rotatable=0;points=[[0,0.5],[1,0.5]];portConstraint=eastwest;whiteSpace=wrap;" vertex="1" parent="cgjht4FZZwzc8xEACjgz-1">
          <mxGeometry y="243" width="230" height="20" as="geometry" />
        </mxCell>
        <mxCell id="cgjht4FZZwzc8xEACjgz-18" value="&lt;div&gt;Complete this UML Class Diagram for the Fraction class&lt;/div&gt;&lt;div&gt;- means private&lt;/div&gt;&lt;div&gt;+ means public&lt;br&gt;&lt;/div&gt;&lt;div&gt;&lt;br&gt;&lt;/div&gt;" style="text;strokeColor=none;align=center;fillColor=none;html=1;verticalAlign=middle;whiteSpace=wrap;rounded=0;" vertex="1" parent="1">
          <mxGeometry x="600" y="210" width="170" height="30" as="geometry" />
        </mxCell>
      </root>
    </mxGraphModel>
  </diagram>
</mxfile>
